<?xml version="1.0" encoding="utf-8"?>
<!-- Generator: Adobe Illustrator 16.0.0, SVG Export Plug-In . SVG Version: 6.00 Build 0)  -->
<!DOCTYPE svg PUBLIC "-//W3C//DTD SVG 1.1//EN" "http://www.w3.org/Graphics/SVG/1.1/DTD/svg11.dtd">
<svg version="1.1" id="Layer_1" xmlns="http://www.w3.org/2000/svg" xmlns:xlink="http://www.w3.org/1999/xlink" x="0px" y="0px"
	 width="130px" height="130px" viewBox="0 0 130 130" enable-background="new 0 0 130 130" xml:space="preserve">
<g>
	<g id="Shape_1_copy_3_3_">
		<ellipse fill="#3F91CB" cx="65" cy="65" rx="64" ry="64.017"/>
	</g>
	<g id="GitHub_icon">
		<path fill="#FFFFFF" d="M65.146,27.42c-20.819,0-37.697,16.877-37.697,37.697c0,17.713,12.221,32.564,28.688,36.604
			c-0.007-4.66-0.02-13.525-0.024-13.849c-0.068-0.044-7.146,4.102-10.757-3.146c-0.436-0.896-1.312-3.891-3.507-5.568
			c-0.078-0.065-1.699-0.894-1.848-1.706c-0.017-0.113,0.105-0.351,0.264-0.41c0.166-0.062,2.834-1.157,5.808,2.615
			c0.896,1.263,2.92,6.107,10.004,3.113c0.188-0.746,0.326-1.964,1.857-3.349c-10.549-1.259-14.404-4.871-15.898-13.89
			c-0.934-6.149,0.86-11.26,3.556-13.782c-0.408-0.537-1.754-5.03,0.338-9.782c2.267-0.454,6.424,1.174,10.078,3.807
			c5.153-1.863,14.83-1.38,18.292,0c1.646-1.362,7.522-4.541,10.043-3.8c0.741,1.887,1.811,6.458,0.333,9.79
			c3.284,3.38,4.209,7.745,3.617,13.106c-0.726,8.124-4.837,13.594-16.013,14.551c1.862,1.314,3.572,3.118,3.572,6.177
			c0,3.287-0.002,11.158-0.004,15.664c15.605-4.613,26.996-19.044,26.996-36.146C102.844,44.297,85.966,27.42,65.146,27.42z"/>
	</g>
</g>
</svg>
