<?xml version="1.0" encoding="utf-8"?>
<!-- Generator: Adobe Illustrator 16.0.0, SVG Export Plug-In . SVG Version: 6.00 Build 0)  -->
<!DOCTYPE svg PUBLIC "-//W3C//DTD SVG 1.1//EN" "http://www.w3.org/Graphics/SVG/1.1/DTD/svg11.dtd">
<svg version="1.1" id="Layer_1" xmlns="http://www.w3.org/2000/svg" xmlns:xlink="http://www.w3.org/1999/xlink" x="0px" y="0px"
	 width="130px" height="130px" viewBox="0 0 130 130" enable-background="new 0 0 130 130" xml:space="preserve">
<g>
	<g id="Shape_1_copy_3_25_">
		<ellipse fill="#E13138" cx="65" cy="65" rx="64" ry="64.017"/>
	</g>
	<g id="Pinterest_Icon">
		<path fill="#FFFFFF" d="M67.511,35.251c-17.901,0-26.925,12.646-26.925,23.189c0,6.391,2.45,12.07,7.715,14.187
			c0.861,0.347,1.637,0.014,1.885-0.932c0.177-0.646,0.969-2.297,1.152-2.976c0.253-0.93,0.157-1.261-0.541-2.074
			c-1.516-1.759-2.456-3.598-2.456-6.834c0-10.745,6.709-18.416,18.133-18.416c10.117,0,15.677,6.283,15.677,14.417
			c0,10.707-4.808,19.405-11.945,19.405c-3.942,0-6.889-2.876-5.944-6.813c1.133-4.702,3.322-9.783,3.322-13.177
			c0-3.037-1.648-5.233-5.075-5.233c-4.031,0-7.271,3.767-7.271,9.273c0,3.504,1.162,5.246,1.162,5.246s-4.08,17.841-4.805,20.854
			c-1.44,6.005-0.217,13.365-0.112,14.106c0.061,0.443,0.637,0.546,0.897,0.215c0.368-0.473,5.168-6.312,6.801-12.151
			c0.461-1.648,2.65-10.201,2.65-10.201c1.31,2.46,5.136,4.048,9.203,4.048c12.108,0,20.327-10.306,20.327-24.862
			C91.361,45.509,81.895,35.251,67.511,35.251z"/>
	</g>
</g>
</svg>
